<?xml version="1.0" encoding="utf-8"?>
<!-- Svg Vector Icons : http://www.onlinewebfonts.com/icon -->
<!DOCTYPE svg PUBLIC "-//W3C//DTD SVG 1.1//EN" "http://www.w3.org/Graphics/SVG/1.1/DTD/svg11.dtd">
<svg version="1.1" xmlns="http://www.w3.org/2000/svg" xmlns:xlink="http://www.w3.org/1999/xlink" x="0px" y="0px" viewBox="0 0 256 256" enable-background="new 0 0 256 256" xml:space="preserve">
<metadata> Svg Vector Icons : http://www.onlinewebfonts.com/icon </metadata>
<g><g><g><path fill="#000000" d="M64.8,33.7c-11.4,2.2-19.2,9.9-21.7,21.6c-0.4,1.8-0.8,6.5-1,10.4c-0.8,22.7,7.4,37.8,22.2,40.9c9.8,2.1,19.6-0.7,25.6-7.1c8.4-9,11.9-27.2,8.6-44.2c-2.2-10.8-9.3-18.6-19.3-21.2C75,33.1,68.8,33,64.8,33.7z M70.5,42.5c1.2,1.2,0.5,2.2-3.4,4.8c-2.5,1.6-5.6,4.4-8.4,7.3c-2.4,2.6-4.7,4.7-5.1,4.7c-1.3,0-1.9-1.3-1.6-3.1c0.8-4.6,4.2-9.5,7.9-11.7C63.5,42.5,69.4,41.4,70.5,42.5z"/><path fill="#000000" d="M159.8,33.5c-5.6,0.9-11.8,3.2-15.9,6c-4.6,3.1-9.5,9.5-11.8,15.4c-2.6,6.6-3.2,11.1-3.2,23.8c0,10.2,0.1,12.1,1,16.8c3.7,18,11.6,28.5,24.9,32.9c3.2,1.1,4.4,1.2,10.9,1.2c8.3,0,11.2-0.5,16.7-3.2c6.7-3.3,11.2-8.1,15-16c4-8.2,5.7-16,6.2-27.7c0.5-13-1.1-23-4.9-30.8c-1.8-3.7-2.8-5.1-6.2-8.5c-4.6-4.6-9.3-7.3-15.8-8.9C172.4,33.3,164,32.9,159.8,33.5z M164.4,44.1c0.8,0.8,0.9,2,0.4,2.8c-0.2,0.2-2.2,1.7-4.6,3.2c-4.4,2.9-11.8,9.7-14.7,13.5c-1.7,2.4-3.5,3-4.7,1.7c-2.2-2.2,2-12.1,6.8-16.4C152.4,44.8,162.3,41.9,164.4,44.1z"/><path fill="#000000" d="M67.8,116.1c-3.7,1.4-5.2,3-5.2,5.7c0,1.9,1.5,5.9,3.3,8.7c0.8,1.2,1.4,2.5,1.4,2.8c0,0.8-6.3,18.7-6.6,18.7c-0.1,0-2.8-8-5.9-17.9c-3.1-9.8-5.7-17.9-5.9-17.9c-0.2,0-1.8,0.9-3.5,2c-5.5,3.3-13.4,6.9-20,9c-7.8,2.5-8.7,3-10.9,5.5c-2,2.2-3.2,4.7-4,8.4c-0.7,3.2-0.7,15.8,0,19.7l0.5,3l2.9,1.6c3.7,2.1,13.4,6,18.9,7.5c11.8,3.4,21.7,4.8,35.8,5.3l10.4,0.3l0.3-3.8c0.8-10.6,5.3-18.7,12.2-22.2c1.6-0.8,5.5-2.2,8.6-3.1c7.2-2.2,15.2-5.5,23.4-9.7l6.4-3.3l-1-1.8c-1.7-3.1-3.9-4.4-11.5-6.9c-7.7-2.5-14.3-5.5-20.2-9c-2.2-1.3-4-2.4-4.1-2.4c-0.2,0-2.2,6-9,27.5c-1.5,4.6-2.8,8.2-3,8c-0.2-0.2-1.8-4.5-3.5-9.5l-3.2-9l1.4-2.3c2.3-3.5,3.4-6.5,3.4-9.1c0-1.9-0.2-2.5-1.3-3.7c-0.8-0.7-2.2-1.6-3.2-1.8C72.7,115.8,69,115.7,67.8,116.1z"/><path fill="#000000" d="M133.9,143.7c-8.5,5.3-20.8,10.8-29.9,13.4c-2.4,0.7-5.4,1.7-6.6,2.4c-4.8,2.4-8.6,7.9-10.1,15c-0.7,3.1-0.8,5.4-0.6,14.6c0.1,7.2,0.4,11.6,0.9,13c0.6,2,0.8,2.2,4.8,4.3c5.5,2.9,10.9,5.2,18.3,7.7c40,13.8,89.8,11.3,126.1-6.2c3.9-1.9,7.3-3.8,7.6-4.3c1.1-1.9,1.6-9.3,1.4-18.9c-0.2-9-0.3-10-1.5-13.5c-2.1-6.3-6.1-10.8-11.3-12.6c-1-0.3-5-1.6-8.7-2.9c-7.3-2.4-18.5-7.5-24.9-11.5c-2.2-1.4-4.1-2.5-4.4-2.5s-3.8,10.4-7.9,23.3c-4.1,12.9-7.5,23.5-7.6,23.6c-0.1,0.1-2.2-5.4-4.6-12.2l-4.4-12.5l2.2-3.4c6.1-9.8,5.7-16-1.1-18.5c-2.6-0.9-8.2-0.9-11,0c-2.6,0.9-4.8,3.2-5.3,5.5c-0.6,3.2,1.5,9.1,5,14.2l1.4,2l-4.3,12.2c-2.4,6.8-4.4,12.3-4.6,12.3c-0.1,0-3.5-10.3-7.5-23c-4-12.6-7.3-23.1-7.5-23.5C137.8,141.5,136.4,142.1,133.9,143.7z"/></g></g></g>
</svg>